<svg width="512" height="512" viewBox="0 0 512 512" fill="none" xmlns="http://www.w3.org/2000/svg">
    <defs>
        <linearGradient id="union-grad" x1="0" y1="0" x2="512" y2="512" gradientUnits="userSpaceOnUse">
            <stop offset="0%" stop-color="#3B82F6"/> <stop offset="50%" stop-color="#8B5CF6"/> <stop offset="100%" stop-color="#EC4899"/> </linearGradient>
        <filter id="glass-glow" x="-20%" y="-20%" width="140%" height="140%">
            <feGaussianBlur in="SourceGraphic" stdDeviation="20" result="blur" />
            <feColorMatrix in="blur" type="matrix" values="1 0 0 0 0  0 1 0 0 0  0 0 1 0 0  0 0 0 0.4 0" />
        </filter>
    </defs>

    <rect x="0" y="0" width="512" height="512" rx="120" fill="url(#union-grad)" />
    
    <rect x="10" y="10" width="492" height="492" rx="110" stroke="white" stroke-opacity="0.2" stroke-width="4"/>

    <g transform="translate(116, 116) scale(0.55)">
        <path d="M60 0C26.8629 0 0 26.8629 0 60V452C0 485.137 26.8629 512 60 512C93.1371 512 120 485.137 120 452V60C120 26.8629 93.1371 0 60 0Z" fill="white"/>
        
        <path d="M180 60C180 26.8629 206.863 0 240 0H340C439.411 0 520 80.5888 520 180C520 256.059 472.77 321.139 405.86 348.65L502.426 445.216C525.858 468.647 525.858 506.637 502.426 530.069C478.995 553.5 441.005 553.5 417.574 530.069L298.666 411.161C285.83 398.326 294.921 376.381 313.074 376.381H340C384.183 376.381 420 340.563 420 296.381V180C420 135.817 384.183 100 340 100H240C206.863 100 180 73.1371 180 40V60Z" fill="white"/>
    </g>
</svg>